#tb 0: 1/1000
#media_type 0: video
#codec_id 0: mjpeg
#dimensions 0: 320x240
#sar 0: 1/1
#tb 1: 1/1000
#media_type 1: audio
#codec_id 1: adpcm_ima_smjpeg
#sample_rate 1: 22050
#channel_layout 1: 4
#channel_layout_name 1: mono
0,          0,          0,      111,      734, 0x5a042c2c
1,          0,          0,       23,      260, 0x00000000
1,         23,         23,       23,      260, 0x00000000
1,         46,         46,       23,      260, 0xac9e0a9b
1,         69,         69,       23,      260, 0x89256f5b
1,         92,         92,       23,      260, 0x8e646e36
0,        111,        111,      111,      763, 0xb5893f2f
1,        116,        116,       23,      260, 0x3ab972fc
1,        139,        139,       23,      260, 0xaea86bb2
1,        162,        162,       23,      260, 0x2366447a
1,        185,        185,       23,      260, 0x82c14f9c
1,        208,        208,       23,      260, 0xcdcf6fa8
0,        222,        222,      111,     3023, 0x0f3907d3
1,        232,        232,       23,      260, 0xb3ed64bd
1,        255,        255,       23,      260, 0xac304b92
1,        278,        278,       23,      260, 0xc8bc553b
1,        301,        301,       23,      260, 0xd35572b4
1,        325,        325,       23,      260, 0x182f6190
0,        333,        333,      111,     4800, 0x22e6e18a
1,        348,        348,       23,      260, 0xbf9145c0
1,        371,        371,       23,      260, 0x0ec85a7e
1,        394,        394,       23,      260, 0x3684720e
1,        417,        417,       23,      260, 0xe985616a
1,        441,        441,       23,      260, 0x12b147dc
0,        444,        444,      111,     6417, 0x427adde5
1,        464,        464,       23,      260, 0xb8b55dd9
1,        487,        487,       23,      260, 0xfd4a7007
1,        510,        510,       23,      260, 0xfcc05c9a
1,        534,        534,       23,      260, 0x20f74aea
0,        555,        555,      111,     6776, 0x7a74c6ad
1,        557,        557,       23,      260, 0x025359ca
1,        580,        580,       23,      260, 0xace44ba1
1,        603,        603,       23,      260, 0x03506929
1,        626,        626,       23,      260, 0x8a926f17
1,        650,        650,       23,      260, 0x4a7061e7
0,        666,        666,      111,     6808, 0x1f6eb7c3
1,        673,        673,       23,      260, 0xf8b66cc9
1,        696,        696,       23,      260, 0xe8c96dec
1,        719,        719,       23,      260, 0x672a54a6
1,        743,        743,       23,      260, 0xe97b5698
1,        766,        766,       23,      260, 0x377f684d
0,        777,        777,      111,     6726, 0x452087e6
1,        789,        789,       23,      260, 0xe9a66786
1,        812,        812,       23,      260, 0xf8e17080
1,        835,        835,       23,      260, 0x65eb662a
1,        859,        859,       23,      260, 0xd8d361e9
1,        882,        882,       23,      260, 0xb8115a0b
0,        888,        888,      111,     6829, 0xee82b109
1,        905,        905,       23,      260, 0xa5a85461
1,        928,        928,       23,      260, 0xf401663b
1,        952,        952,       23,      260, 0x042f714e
1,        975,        975,       23,      260, 0xdf195820
1,        998,        998,       23,      260, 0x0a67653c
0,        999,        999,      111,     7055, 0xf41f1108
1,       1021,       1021,       23,      260, 0xe9b44d02
1,       1044,       1044,       23,      260, 0xbd4747b9
1,       1068,       1068,       23,      260, 0x3ef66738
1,       1091,       1091,       23,      260, 0x0f4a6e44
0,       1111,       1111,      111,     6977, 0xf8fe1ede
1,       1114,       1114,       23,      260, 0xaa3d6eb6
1,       1137,       1137,       23,      260, 0xb9a46c4a
1,       1160,       1160,       23,      260, 0x4f974c2e
1,       1184,       1184,       23,      260, 0x9e714a00
1,       1207,       1207,       23,      260, 0x601a7152
0,       1222,       1222,      111,     6942, 0x9ad105c6
1,       1230,       1230,       23,      260, 0xaf317064
1,       1253,       1253,       23,      260, 0x163d4829
1,       1277,       1277,       23,      260, 0xc56b4f1a
1,       1300,       1300,       23,      260, 0x7623729c
1,       1323,       1323,       23,      260, 0xa514694f
0,       1333,       1333,      111,     6926, 0xe239dad6
1,       1346,       1346,       23,      260, 0x93ee4ad8
1,       1369,       1369,       23,      260, 0x6d8e573f
1,       1393,       1393,       23,      260, 0x13256d68
1,       1416,       1416,       23,      260, 0x187761a2
1,       1439,       1439,       23,      260, 0x426045e7
0,       1444,       1444,      111,     6966, 0x81dcfab1
1,       1462,       1462,       23,      260, 0x7e7e5891
1,       1486,       1486,       23,      260, 0xd6926dcc
1,       1509,       1509,       23,      260, 0xf0196061
1,       1532,       1532,       23,      260, 0x7cac49a3
0,       1555,       1555,      111,     6896, 0x31e6cc02
1,       1555,       1555,       23,      260, 0x24f4549a
1,       1578,       1578,       23,      260, 0x937f551d
1,       1602,       1602,       23,      260, 0x9bf462c5
1,       1625,       1625,       23,      260, 0xd1e07436
1,       1648,       1648,       23,      260, 0xdab36215
0,       1666,       1666,      111,     6889, 0x1cc1006e
1,       1671,       1671,       23,      260, 0xabc5662b
1,       1695,       1695,       23,      260, 0xa24f6bf1
1,       1718,       1718,       23,      260, 0x39e664b2
1,       1741,       1741,       23,      260, 0xf5dc54ca
1,       1764,       1764,       23,      260, 0xc3b16974
0,       1777,       1777,      111,     6933, 0xc303f87f
1,       1787,       1787,       23,      260, 0x6cf46bca
1,       1811,       1811,       23,      260, 0x7a6b69b9
1,       1834,       1834,       23,      260, 0xc02f69b9
1,       1857,       1857,       23,      260, 0x7fc764a9
1,       1880,       1880,       23,      260, 0xd9705b09
0,       1888,       1888,      111,     7034, 0xb4970a20
1,       1904,       1904,       23,      260, 0x17b05f49
1,       1927,       1927,       23,      260, 0x10ad647c
1,       1950,       1950,       23,      260, 0xf9636d69
1,       1973,       1973,       23,      260, 0x622b5ad9
1,       1996,       1996,       23,      260, 0x175b646d
0,       1999,       1999,      111,     6961, 0xf064095d
1,       2020,       2020,       23,      260, 0x722b5827
1,       2043,       2043,       23,      260, 0x83614974
1,       2066,       2066,       23,      260, 0x80366587
1,       2089,       2089,       23,      260, 0x050f6bf9
0,       2111,       2111,      111,     7089, 0x5ba350f9
1,       2113,       2113,       23,      260, 0x949d6735
1,       2136,       2136,       23,      260, 0x62cd7184
1,       2159,       2159,       23,      260, 0x21e45713
1,       2182,       2182,       23,      260, 0x56314509
1,       2205,       2205,       23,      260, 0x7a1570d3
0,       2222,       2222,      111,     7078, 0xa83f3e88
1,       2229,       2229,       23,      260, 0x205a6ffb
1,       2252,       2252,       23,      260, 0xead94483
1,       2275,       2275,       23,      260, 0x93c84f10
1,       2298,       2298,       23,      260, 0xdf45726f
1,       2321,       2321,       23,      260, 0x35016f1e
0,       2333,       2333,      111,     7147, 0xcda66cfc
1,       2345,       2345,       23,      260, 0xa8114bcd
1,       2368,       2368,       23,      260, 0x14c45130
1,       2391,       2391,       23,      260, 0x97b07052
1,       2414,       2414,       23,      260, 0x039b6c77
1,       2438,       2438,       23,      260, 0x46f74635
0,       2444,       2444,      111,     7173, 0xb7455859
1,       2461,       2461,       23,      260, 0x4116540d
1,       2484,       2484,       23,      260, 0x26747067
1,       2507,       2507,       23,      260, 0x37f16485
1,       2530,       2530,       23,      260, 0x631d4a33
1,       2554,       2554,       23,      260, 0x14ed598d
0,       2555,       2555,      111,     7213, 0x97b89994
1,       2577,       2577,       23,      260, 0x3f9349e7
1,       2600,       2600,       23,      260, 0x91295757
1,       2623,       2623,       23,      260, 0x95de72bc
1,       2647,       2647,       23,      260, 0xc7ee5ddb
0,       2666,       2666,      111,     7170, 0xca8b2948
1,       2670,       2670,       23,      260, 0x38e965cd
1,       2693,       2693,       23,      260, 0xfae169e9
1,       2716,       2716,       23,      260, 0x9c226143
1,       2739,       2739,       23,      260, 0x1a804dbe
1,       2763,       2763,       23,      260, 0x4aeb633c
0,       2777,       2777,      111,     7174, 0xc7cc6bbb
1,       2786,       2786,       23,      260, 0xa66e6bbb
1,       2809,       2809,       23,      260, 0x51d17109
1,       2832,       2832,       23,      260, 0x2bc86b9b
1,       2856,       2856,       23,      260, 0xe56e6378
1,       2879,       2879,       23,      260, 0x95665b47
0,       2888,       2888,      111,     7235, 0xc2e68d2b
1,       2902,       2902,       23,      260, 0x1c255fdb
1,       2925,       2925,       23,      260, 0x3a2456cb
1,       2948,       2948,       23,      260, 0xe18e7270
1,       2972,       2972,       23,      260, 0x55b65c60
1,       2995,       2995,       23,      260, 0x62be6515
0,       3000,       3000,      111,     7261, 0x8204a423
1,       3018,       3018,       23,      260, 0xdba25d09
1,       3041,       3041,       23,      260, 0xd7cc4e40
1,       3065,       3065,       23,      260, 0x335661be
1,       3088,       3088,       23,      260, 0xc3286de3
0,       3111,       3111,      111,     7353, 0xacc7e7c0
1,       3111,       3111,       23,      260, 0x47e76e35
1,       3134,       3134,       23,      260, 0x4b716f77
1,       3157,       3157,       23,      260, 0x0716519e
1,       3181,       3181,       23,      260, 0x032b4490
1,       3204,       3204,       23,      260, 0x15f067e8
0,       3222,       3222,      111,     7065, 0x45035c5c
1,       3227,       3227,       23,      260, 0x16766ffa
1,       3250,       3250,       23,      260, 0xc94154ac
1,       3274,       3274,       23,      260, 0x74764bcd
1,       3297,       3297,       23,      260, 0x3fad6f8f
1,       3320,       3320,       23,      260, 0x5fa972a9
0,       3333,       3333,      111,     7269, 0x72edbb76
1,       3343,       3343,       23,      260, 0xde2a4b7b
1,       3366,       3366,       23,      260, 0xd8494408
1,       3390,       3390,       23,      260, 0x843d71a6
1,       3413,       3413,       23,      260, 0x87fd6b60
1,       3436,       3436,       23,      260, 0x1cc04a39
0,       3444,       3444,      111,     7220, 0xb926772f
1,       3459,       3459,       23,      260, 0x9ca24d94
1,       3482,       3482,       23,      260, 0x820a7087
1,       3506,       3506,       23,      260, 0x631166b2
1,       3529,       3529,       23,      260, 0x2f20492a
1,       3552,       3552,       23,      260, 0x932156d0
0,       3555,       3555,      111,     7326, 0x0a66c632
1,       3575,       3575,       23,      260, 0xdad54c90
1,       3599,       3599,       23,      260, 0xcce84fc9
1,       3622,       3622,       23,      260, 0xba317486
1,       3645,       3645,       23,      260, 0xf5a4626a
0,       3666,       3666,      111,     7225, 0xe39076ab
1,       3668,       3668,       23,      260, 0x324669fd
1,       3691,       3691,       23,      260, 0xc7d37113
1,       3715,       3715,       23,      260, 0xc6e0644f
1,       3738,       3738,       23,      260, 0x1b91522e
1,       3761,       3761,       23,      260, 0x9b84667d
0,       3777,       3777,      111,     7265, 0xe0209036
1,       3784,       3784,       23,      260, 0xed7e66eb
1,       3808,       3808,       23,      260, 0xaf806d1f
1,       3831,       3831,       23,      260, 0x13a66941
1,       3854,       3854,       23,      260, 0x13095a41
1,       3877,       3877,       23,      260, 0x5ba05491
0,       3888,       3888,      111,     7337, 0x7a5dc093
1,       3900,       3900,       23,      260, 0xbf785887
1,       3924,       3924,       23,      260, 0x21965973
1,       3947,       3947,       23,      260, 0xd9aa7134
1,       3970,       3970,       23,      260, 0x3add62bc
1,       3993,       3993,       23,      260, 0xb9626260
0,       4000,       4000,      111,     7246, 0x519a7a3c
1,       4017,       4017,       23,      260, 0x5b08629f
1,       4040,       4040,       23,      260, 0x43a34659
1,       4063,       4063,       23,      260, 0x68575bda
1,       4086,       4086,       23,      260, 0xd98b715a
1,       4109,       4109,       23,      260, 0x7d816a77
0,       4111,       4111,      111,     7266, 0x352c8078
1,       4133,       4133,       23,      260, 0x16af6ff1
1,       4156,       4156,       23,      260, 0x6d4557a7
1,       4179,       4179,       23,      260, 0x0743401a
1,       4202,       4202,       23,      260, 0x410563d8
0,       4222,       4222,      111,     7323, 0xcaf69d7c
1,       4226,       4226,       23,      260, 0x561371d1
1,       4249,       4249,       23,      260, 0x3ef15872
1,       4272,       4272,       23,      260, 0x1dd04972
1,       4295,       4295,       23,      260, 0xed226c62
1,       4318,       4318,       23,      260, 0x20857046
0,       4333,       4333,      111,     7309, 0x98c1e6f7
1,       4342,       4342,       23,      260, 0xed7f4724
1,       4365,       4365,       23,      260, 0x7a7445cf
1,       4388,       4388,       23,      260, 0x06ad6a93
1,       4411,       4411,       23,      260, 0xdd1b6c91
1,       4435,       4435,       23,      260, 0x05b94d27
0,       4444,       4444,      111,     7121, 0x913d5bd6
1,       4458,       4458,       23,      260, 0x12cc5062
1,       4481,       4481,       23,      260, 0x44526d0f
1,       4504,       4504,       23,      260, 0xf2ac6d95
1,       4527,       4527,       23,      260, 0x27174b0f
1,       4551,       4551,       23,      260, 0xcf125efe
0,       4555,       4555,      111,     7088, 0x56302362
1,       4574,       4574,       23,      260, 0xb8ce45a1
1,       4597,       4597,       23,      260, 0x91895627
1,       4620,       4620,       23,      260, 0x6edb706a
1,       4643,       4643,       23,      260, 0x4e16674b
0,       4666,       4666,      111,     7104, 0xc0d14f78
1,       4667,       4667,       23,      260, 0xa9d66370
1,       4690,       4690,       23,      260, 0x8f007043
1,       4713,       4713,       23,      260, 0xdc1a5583
1,       4736,       4736,       23,      260, 0x2f025511
1,       4760,       4760,       23,      260, 0x2a4d6ddb
0,       4777,       4777,      111,     7169, 0xd03c825b
1,       4783,       4783,       23,      260, 0x54806f14
1,       4806,       4806,       23,      260, 0xe0ac6d80
1,       4829,       4829,       23,      260, 0xd9cf6c97
1,       4852,       4852,       23,      260, 0xba705b6d
1,       4876,       4876,       23,      260, 0x0be158e0
0,       4888,       4888,      111,     7038, 0x1ecc201d
1,       4899,       4899,       23,      260, 0x32b3645d
1,       4922,       4922,       23,      260, 0x4a0a55b4
1,       4945,       4945,       23,      260, 0x078b6fd8
1,       4969,       4969,       23,      260, 0xc2816368
1,       4992,       4992,       23,      260, 0xbdee5e4d
0,       5000,       5000,      111,     7015, 0x83c94454
1,       5015,       5015,       23,      260, 0x475366aa
1,       5038,       5038,       23,      260, 0x2f9a44b9
1,       5061,       5061,       23,      260, 0x91745ee5
1,       5085,       5085,       23,      260, 0xc29b6e16
1,       5108,       5108,       23,      260, 0x6ebb6b0e
0,       5111,       5111,      111,     6983, 0x9e51f54d
1,       5131,       5131,       23,      260, 0x4e7d7043
1,       5154,       5154,       23,      260, 0x10b45caf
1,       5178,       5178,       23,      260, 0x1b1e4e54
1,       5201,       5201,       23,      260, 0xcc7b6443
0,       5222,       5222,      111,     7088, 0x70d33de1
1,       5224,       5224,       23,      260, 0x29936fdd
1,       5247,       5247,       23,      260, 0x395256e3
1,       5270,       5270,       23,      260, 0x50fb459f
1,       5294,       5294,       23,      260, 0x0bef64ec
1,       5317,       5317,       23,      260, 0xadd372dd
0,       5333,       5333,      111,     7096, 0x4d0f81b5
1,       5340,       5340,       23,      260, 0xc49e56dc
1,       5363,       5363,       23,      260, 0x44e749c1
1,       5387,       5387,       23,      260, 0x030e6c8a
1,       5410,       5410,       23,      260, 0x82a47261
1,       5433,       5433,       23,      260, 0xa3764fcc
0,       5444,       5444,      111,     7106, 0xd1a83ddc
1,       5456,       5456,       23,      260, 0xb1a1498a
1,       5479,       5479,       23,      260, 0xbf9c7184
1,       5503,       5503,       23,      260, 0xa45f6da8
1,       5526,       5526,       23,      260, 0x9a2e4d51
1,       5549,       5549,       23,      260, 0xa15c56ed
0,       5555,       5555,      111,     7219, 0x20f47fe4
1,       5572,       5572,       23,      260, 0x7029496c
1,       5596,       5596,       23,      260, 0xf3595213
1,       5619,       5619,       23,      260, 0x0dab6c5a
1,       5642,       5642,       23,      260, 0x0e2367da
1,       5665,       5665,       23,      260, 0xbb56610a
0,       5666,       5666,      111,     7184, 0x45dc6a0e
1,       5688,       5688,       23,      260, 0xcc916c92
1,       5712,       5712,       23,      260, 0x886c5ba9
1,       5735,       5735,       23,      260, 0x1b255a69
1,       5758,       5758,       23,      260, 0xb7a66792
0,       5777,       5777,      111,     7222, 0x488c6499
1,       5781,       5781,       23,      260, 0x7d946b0e
1,       5804,       5804,       23,      260, 0x07d16714
1,       5828,       5828,       23,      260, 0x77ef6755
1,       5851,       5851,       23,      260, 0xb2fe6849
1,       5874,       5874,       23,      260, 0x601b5325
0,       5888,       5888,      111,     7254, 0xbd097ba7
1,       5897,       5897,       23,      260, 0x309c68d0
1,       5921,       5921,       23,      260, 0x7bbe5d49
1,       5944,       5944,       23,      260, 0x77bc6e47
1,       5967,       5967,       23,      260, 0x3e0a6b0b
1,       5990,       5990,       23,      260, 0x2ae458c4
0,       6000,       6000,      111,     7189, 0x46e06d43
1,       6013,       6013,       23,      260, 0x17576d4f
1,       6037,       6037,       23,      260, 0x496c4bbd
1,       6060,       6060,       23,      260, 0x972758a0
1,       6083,       6083,       23,      260, 0xa9897452
1,       6106,       6106,       23,      260, 0xf58c6b92
0,       6111,       6111,      111,     7283, 0x19dd7319
1,       6130,       6130,       23,      260, 0x8368709a
1,       6153,       6153,       23,      260, 0x3890643f
1,       6176,       6176,       23,      260, 0xdcc1472c
1,       6199,       6199,       23,      260, 0xb601605c
0,       6222,       6222,      111,     7161, 0x23171d02
1,       6222,       6222,       23,      260, 0xfafd6e13
1,       6246,       6246,       23,      260, 0x20a55dbf
1,       6269,       6269,       23,      260, 0x84a147e6
1,       6292,       6292,       23,      260, 0xe2c75bfd
1,       6315,       6315,       23,      260, 0x52f672c4
0,       6333,       6333,      111,     6976, 0xcc610c26
1,       6339,       6339,       23,      260, 0x98af579a
1,       6362,       6362,       23,      260, 0xf2034f37
1,       6385,       6385,       23,      260, 0x75576856
1,       6408,       6408,       23,      260, 0x4a796f1b
1,       6431,       6431,       23,      260, 0x3a7a5612
0,       6444,       6444,      111,     7056, 0x6cd917b0
1,       6455,       6455,       23,      260, 0x1c0646bd
1,       6478,       6478,       23,      260, 0xfccd6e2c
1,       6501,       6501,       23,      260, 0x2bdd7139
1,       6524,       6524,       23,      260, 0xadb4519a
1,       6548,       6548,       23,      260, 0x8ef655b5
0,       6555,       6555,      111,     6736, 0x02b78951
1,       6571,       6571,       23,      260, 0x157852f6
1,       6594,       6594,       23,      260, 0xec3a4aa8
1,       6617,       6617,       23,      260, 0x5fa77041
1,       6640,       6640,       23,      260, 0xe862690f
1,       6664,       6664,       23,      260, 0xad1759ce
0,       6666,       6666,      111,     6540, 0x767e0854
1,       6687,       6687,       23,      260, 0x856f6d2e
1,       6710,       6710,       23,      260, 0x19496938
1,       6733,       6733,       23,      260, 0xf3135c06
1,       6757,       6757,       23,      260, 0xbec861ab
0,       6777,       6777,      111,     6170, 0xc84962fb
1,       6780,       6780,       23,      260, 0x97486f09
1,       6803,       6803,       23,      260, 0x2dcb64ed
1,       6826,       6826,       23,      260, 0xac196fe8
1,       6849,       6849,       23,      260, 0xa7d460f8
1,       6873,       6873,       23,      260, 0x02e55631
0,       6888,       6888,      111,     6169, 0x27e06c03
1,       6896,       6896,       23,      260, 0x92556737
1,       6919,       6919,       23,      260, 0x9ab25599
1,       6942,       6942,       23,      260, 0x48017498
1,       6965,       6965,       23,      260, 0x3f376d65
1,       6989,       6989,       23,      260, 0x553750e2
0,       7000,       7000,      111,     5864, 0xd14db83f
1,       7012,       7012,       23,      260, 0x430a6cb9
1,       7035,       7035,       23,      260, 0x0d4f3b7e
1,       7058,       7058,       23,      260, 0xc5ee5733
1,       7082,       7082,       23,      260, 0xec33744f
1,       7105,       7105,       23,      260, 0xb7ca6c50
0,       7111,       7111,      111,     5375, 0x4a21055d
1,       7128,       7128,       23,      260, 0xca8e6e09
1,       7151,       7151,       23,      260, 0xde7b67d9
1,       7174,       7174,       23,      260, 0x1eeb47c6
1,       7198,       7198,       23,      260, 0x97e355f6
1,       7221,       7221,       23,      260, 0x4cb871da
0,       7222,       7222,      111,     5206, 0x95ead3cb
1,       7244,       7244,       23,      260, 0xf9d65f42
1,       7267,       7267,       23,      260, 0x4df447f9
1,       7291,       7291,       23,      260, 0x6da55c39
1,       7314,       7314,       23,      260, 0xf8487192
0,       7333,       7333,      111,     5220, 0xcfdcc37e
1,       7337,       7337,       23,      260, 0xa5ef5e84
1,       7360,       7360,       23,      260, 0xc750404d
1,       7383,       7383,       23,      260, 0xe62d5ba7
1,       7407,       7407,       23,      260, 0xa362739c
1,       7430,       7430,       23,      260, 0x784c57f9
0,       7444,       7444,      111,     4946, 0x2d864a77
1,       7453,       7453,       23,      260, 0xac224b6f
1,       7476,       7476,       23,      260, 0x34506907
1,       7500,       7500,       23,      260, 0x94207121
1,       7523,       7523,       23,      260, 0x018754e6
1,       7546,       7546,       23,      260, 0xa5355133
0,       7555,       7555,      111,     4390, 0x2ab9f462
1,       7569,       7569,       23,      260, 0x93724dac
1,       7592,       7592,       23,      260, 0x41e24c4c
1,       7616,       7616,       23,      260, 0x1b2a7301
1,       7639,       7639,       23,      260, 0xcce36e61
1,       7662,       7662,       23,      260, 0xb323585a
0,       7666,       7666,      111,     4051, 0x1d09592e
1,       7685,       7685,       23,      260, 0x6f7c624d
1,       7709,       7709,       23,      260, 0x87b96a4a
1,       7732,       7732,       23,      260, 0xf567622a
1,       7755,       7755,       23,      260, 0x52ce5d35
0,       7777,       7777,      111,     3680, 0x39bd6a12
1,       7778,       7778,       23,      260, 0x58a46c28
1,       7801,       7801,       23,      260, 0x8e3e6d9a
1,       7825,       7825,       23,      260, 0x5ef66906
1,       7848,       7848,       23,      260, 0x351b5f9f
1,       7871,       7871,       23,      260, 0x90b9588a
0,       7888,       7888,      111,     2910, 0x6337ece9
1,       7894,       7894,       23,      260, 0x34e8615f
1,       7918,       7918,       23,      260, 0xcef75ab9
1,       7941,       7941,       23,      260, 0x471f6bc8
1,       7964,       7964,       23,      260, 0xd4756c62
1,       7987,       7987,       23,      260, 0x7c554702
0,       8000,       8000,      111,     2153, 0xf4e3bc17
1,       8010,       8010,       23,      260, 0x185272f1
1,       8034,       8034,       23,      260, 0x0c364348
1,       8057,       8057,       23,      260, 0x24354467
1,       8080,       8080,       23,      260, 0x837d5472
1,       8103,       8103,       23,      260, 0xece2344f
